<svg width="3052" height="3052" viewBox="0 0 3052 3052" fill="none" xmlns="http://www.w3.org/2000/svg">
<path d="M1462.36 140.436C1488.02 47.1235 1500.85 0.467091 1526 0.467091C1551.15 0.467091 1563.98 47.1234 1589.64 140.436L1864.78 1141.08C1869.64 1158.75 1872.07 1167.58 1878.24 1173.76C1884.41 1179.93 1893.25 1182.36 1910.92 1187.22L2911.56 1462.36C3004.88 1488.02 3051.53 1500.85 3051.53 1526C3051.53 1551.15 3004.88 1563.98 2911.56 1589.64L1910.92 1864.78C1893.25 1869.64 1884.41 1872.07 1878.24 1878.24C1872.07 1884.41 1869.64 1893.25 1864.78 1910.92L1589.64 2911.56C1563.98 3004.88 1551.15 3051.53 1526 3051.53C1500.85 3051.53 1488.02 3004.88 1462.36 2911.56L1187.22 1910.92C1182.36 1893.25 1179.93 1884.41 1173.76 1878.24C1167.59 1872.07 1158.75 1869.64 1141.08 1864.78L140.437 1589.64C47.1245 1563.98 0.468068 1551.15 0.468068 1526C0.468068 1500.85 47.1244 1488.02 140.437 1462.36L1141.08 1187.22C1158.75 1182.36 1167.59 1179.93 1173.76 1173.76C1179.93 1167.58 1182.36 1158.75 1187.22 1141.08L1462.36 140.436Z" fill="white"/>
</svg>
